# xmcd CD database file
#
# Track frame offsets:
#	150
#	14594
#	30216
#	44502
#	64566
#	81883
#	107155
#	126539
#	156687
#	174818
#	199279
#
# Disc length: 2858 seconds
#
# Revision: 0
# Processed by: cddbd v1.5.2PL0 Copyright (c) Steve Scherf et al.
# Submitted via: CDex 1.70beta2
#
DISCID=940b280b
DTITLE=Madeleine Peyroux - The Blue Room - Limited Edtion
DYEAR=2013
DGENRE=Jazz
TTITLE0=Take These Chains From My Heart
TTITLE1=Bye Bye Love
TTITLE2=Canging All Those Changes
TTITLE3=Born To Lose
TTITLE4=Guilty
TTITLE5=Bird On A Wire
TTITLE6=I Can't Stop Loving You
TTITLE7=Gentle On My Mind
TTITLE8=You Don't Know Me
TTITLE9=Desperadoes Under The Eaves
TTITLE10=I Love You 'So Much It Hurts - Bonus
EXTD=YEAR: 2013
EXTT0=
EXTT1=
EXTT2=
EXTT3=
EXTT4=
EXTT5=
EXTT6=
EXTT7=
EXTT8=
EXTT9=
EXTT10=
PLAYORDER=
